<?xml version="1.0" encoding="UTF-8" standalone="no"?>
<svg width="40px" height="40px" viewBox="0 0 40 40" version="1.1" xmlns="http://www.w3.org/2000/svg" xmlns:xlink="http://www.w3.org/1999/xlink">
    <!-- Generator: Sketch 49.2 (51160) - http://www.bohemiancoding.com/sketch -->
    <title>toast_icon_!</title>
    <desc>Created with Sketch.</desc>
    <defs></defs>
    <g id="ui" stroke="none" stroke-width="1" fill="none" fill-rule="evenodd">
        <g id="组件1" transform="translate(-270.000000, -280.000000)">
            <g id="浮层" transform="translate(73.000000, 252.000000)">
                <g id="浮层/完成-copy" transform="translate(156.000000, 0.000000)">
                    <g id="浮层/完成">
                        <g id="toast_icon_!">
                            <g transform="translate(41.000000, 28.000000)">
                                <circle id="Oval" stroke="#FFFFFF" stroke-width="2" cx="20" cy="20" r="19"></circle>
                                <path d="M19.0318051,11.2815802 L19.3871512,24.3183885 C19.4001143,24.7939728 19.7893825,25.1727753 20.2651435,25.1727753 L20.2651435,25.1727753 C20.7411491,25.1727753 21.1308534,24.7942367 21.1446871,24.3184322 L21.5237261,11.2815147 C21.5437142,10.5940322 21.0026031,10.0205141 20.3151206,10.000526 C20.30306,10.0001754 20.2909948,10 20.2789291,10 L20.2789291,10 C19.5899057,10 19.0313419,10.5585638 19.0313419,11.2475872 C19.0313419,11.2589198 19.0314963,11.2702518 19.0318051,11.2815802 Z M20.338843,28 C19.9595041,28 19.6471074,28.1147888 19.3793388,28.390282 C19.1115702,28.6428174 19,28.9642261 19,29.3545081 C19,29.74479 19.1115702,30.0661987 19.3793388,30.3416919 C19.6471074,30.5942273 19.9595041,30.7319739 20.338843,30.7319739 C20.7181818,30.7319739 21.0528926,30.5942273 21.3206612,30.3416919 C21.5661157,30.0891565 21.7,29.7677478 21.7,29.3545081 C21.7,28.9642261 21.5661157,28.6428174 21.3206612,28.390282 C21.0528926,28.1147888 20.7181818,28 20.338843,28 Z" id="！" fill="#FFFFFF"></path>
                            </g>
                        </g>
                    </g>
                </g>
            </g>
        </g>
    </g>
</svg>